<svg width="189" height="57" viewBox="0 0 189 57" fill="none" xmlns="http://www.w3.org/2000/svg">
<path d="M1.312 3.6H4.832V26H1.312V3.6ZM7.46825 3.6H11.8843L15.3083 17.008H15.3723V3.6H18.5083V26H14.8923L10.6683 9.648H10.6043V26H7.46825V3.6ZM25.7005 26.32C23.9938 26.32 22.7032 25.84 21.8285 24.88C20.9538 23.8987 20.5165 22.5013 20.5165 20.688V19.408H23.8445V20.944C23.8445 22.3947 24.4525 23.12 25.6685 23.12C26.2658 23.12 26.7138 22.9493 27.0125 22.608C27.3325 22.2453 27.4925 21.6693 27.4925 20.88C27.4925 19.9413 27.2792 19.12 26.8525 18.416C26.4258 17.6907 25.6365 16.8267 24.4845 15.824C23.0338 14.544 22.0205 13.392 21.4445 12.368C20.8685 11.3227 20.5805 10.1493 20.5805 8.848C20.5805 7.07733 21.0285 5.712 21.9245 4.752C22.8205 3.77067 24.1218 3.28 25.8285 3.28C27.5138 3.28 28.7832 3.77067 29.6365 4.752C30.5112 5.712 30.9485 7.09867 30.9485 8.912V9.84H27.6205V8.688C27.6205 7.92 27.4712 7.36533 27.1725 7.024C26.8738 6.66133 26.4365 6.48 25.8605 6.48C24.6872 6.48 24.1005 7.19467 24.1005 8.624C24.1005 9.43467 24.3138 10.192 24.7405 10.896C25.1885 11.6 25.9885 12.4533 27.1405 13.456C28.6125 14.736 29.6258 15.8987 30.1805 16.944C30.7352 17.9893 31.0125 19.216 31.0125 20.624C31.0125 22.4587 30.5538 23.8667 29.6365 24.848C28.7405 25.8293 27.4285 26.32 25.7005 26.32ZM35.7828 6.8H32.1028V3.6H42.9828V6.8H39.3028V26H35.7828V6.8ZM45.9383 3.6H50.7063L54.3543 26H50.8343L50.1943 21.552V21.616H46.1943L45.5543 26H42.2903L45.9383 3.6ZM49.7783 18.576L48.2103 7.504H48.1463L46.6102 18.576H49.7783ZM60.9915 26.32C59.2848 26.32 57.9835 25.84 57.0875 24.88C56.1915 23.8987 55.7435 22.5013 55.7435 20.688V8.912C55.7435 7.09867 56.1915 5.712 57.0875 4.752C57.9835 3.77067 59.2848 3.28 60.9915 3.28C62.6982 3.28 63.9995 3.77067 64.8955 4.752C65.7915 5.712 66.2395 7.09867 66.2395 8.912V10.832H62.9115V8.688C62.9115 7.216 62.3035 6.48 61.0875 6.48C59.8715 6.48 59.2635 7.216 59.2635 8.688V20.944C59.2635 22.3947 59.8715 23.12 61.0875 23.12C62.3035 23.12 62.9115 22.3947 62.9115 20.944V16.56H61.1515V13.36H66.2395V20.688C66.2395 22.5013 65.7915 23.8987 64.8955 24.88C63.9995 25.84 62.6982 26.32 60.9915 26.32ZM68.4995 3.6H73.7155C75.5288 3.6 76.8515 4.02667 77.6835 4.88C78.5155 5.712 78.9315 7.00267 78.9315 8.752V10.128C78.9315 12.4533 78.1635 13.9253 76.6275 14.544V14.608C77.4808 14.864 78.0782 15.3867 78.4195 16.176C78.7822 16.9653 78.9635 18.0213 78.9635 19.344V23.28C78.9635 23.92 78.9848 24.4427 79.0275 24.848C79.0702 25.232 79.1768 25.616 79.3475 26H75.7635C75.6355 25.6373 75.5502 25.296 75.5075 24.976C75.4648 24.656 75.4435 24.08 75.4435 23.248V19.152C75.4435 18.128 75.2728 17.4133 74.9315 17.008C74.6115 16.6027 74.0462 16.4 73.2355 16.4H72.0195V26H68.4995V3.6ZM73.2995 13.2C74.0035 13.2 74.5262 13.0187 74.8675 12.656C75.2302 12.2933 75.4115 11.6853 75.4115 10.832V9.104C75.4115 8.29333 75.2622 7.70667 74.9635 7.344C74.6862 6.98133 74.2382 6.8 73.6195 6.8H72.0195V13.2H73.2995ZM84.1258 3.6H88.8938L92.5418 26H89.0218L88.3818 21.552V21.616H84.3818L83.7418 26H80.4778L84.1258 3.6ZM87.9658 18.576L86.3978 7.504H86.3338L84.7977 18.576H87.9658ZM94.2495 3.6H99.2735L101.514 19.632H101.578L103.818 3.6H108.842V26H105.514V9.04H105.45L102.89 26H99.9455L97.3855 9.04H97.3215V26H94.2495V3.6ZM115.761 3.6H119.153L120.721 20.816H120.785L122.449 3.6H126.289L127.953 20.816H128.017L129.585 3.6H132.625L130.353 26H125.969L124.369 10.896H124.305L122.705 26H118.033L115.761 3.6ZM134.406 3.6H137.926V26H134.406V3.6ZM140.562 3.6H145.938C147.687 3.6 148.999 4.06933 149.874 5.008C150.749 5.94667 151.186 7.32267 151.186 9.136V20.464C151.186 22.2773 150.749 23.6533 149.874 24.592C148.999 25.5307 147.687 26 145.938 26H140.562V3.6ZM145.874 22.8C146.45 22.8 146.887 22.6293 147.186 22.288C147.506 21.9467 147.666 21.392 147.666 20.624V8.976C147.666 8.208 147.506 7.65333 147.186 7.312C146.887 6.97067 146.45 6.8 145.874 6.8H144.082V22.8H145.874ZM158.554 26.32C156.847 26.32 155.546 25.84 154.65 24.88C153.754 23.8987 153.306 22.5013 153.306 20.688V8.912C153.306 7.09867 153.754 5.712 154.65 4.752C155.546 3.77067 156.847 3.28 158.554 3.28C160.261 3.28 161.562 3.77067 162.458 4.752C163.354 5.712 163.802 7.09867 163.802 8.912V10.832H160.474V8.688C160.474 7.216 159.866 6.48 158.65 6.48C157.434 6.48 156.826 7.216 156.826 8.688V20.944C156.826 22.3947 157.434 23.12 158.65 23.12C159.866 23.12 160.474 22.3947 160.474 20.944V16.56H158.714V13.36H163.802V20.688C163.802 22.5013 163.354 23.8987 162.458 24.88C161.562 25.84 160.261 26.32 158.554 26.32ZM166.062 3.6H175.662V6.8H169.582V12.72H174.414V15.92H169.582V22.8H175.662V26H166.062V3.6ZM180.439 6.8H176.759V3.6H187.639V6.8H183.959V26H180.439V6.8Z" fill="#20ACE2"/>
<path d="M62.2422 31.7188C62.3047 32.2812 62.3672 32.9062 62.4297 33.5938C62.5078 34.2656 62.5703 34.9609 62.6172 35.6797C62.6641 36.3828 62.6953 37.0938 62.7109 37.8125C62.7266 38.5156 62.7188 39.1797 62.6875 39.8047C62.9375 39.5859 63.1641 39.3984 63.3672 39.2422C63.5859 39.0703 63.7969 38.9219 64 38.7969C64.2188 38.6719 64.4297 38.5781 64.6328 38.5156C64.8516 38.4531 65.1016 38.4219 65.3828 38.4219C65.9453 38.4219 66.4609 38.5625 66.9297 38.8438C67.3984 39.1094 67.7969 39.4688 68.125 39.9219C68.4531 40.3594 68.7031 40.8516 68.875 41.3984C69.0625 41.9297 69.1562 42.4531 69.1562 42.9688C69.125 43.8438 68.9453 44.5469 68.6172 45.0781C68.2891 45.5938 67.8516 45.9922 67.3047 46.2734C66.7734 46.5547 66.1406 46.7188 65.4062 46.7656C64.6875 46.8125 63.9297 46.8047 63.1328 46.7422V45.6406C63.4141 45.8906 63.6719 46.0391 63.9062 46.0859C64.1406 46.1172 64.4219 46.1328 64.75 46.1328C65.2656 46.1328 65.7344 46.0547 66.1562 45.8984C66.5781 45.7422 66.9375 45.5234 67.2344 45.2422C67.5469 44.9453 67.7812 44.5938 67.9375 44.1875C68.1094 43.7812 68.1953 43.3359 68.1953 42.8516C68.1953 42.4297 68.1719 42.0547 68.125 41.7266C68.0781 41.3984 67.9688 41.1016 67.7969 40.8359C67.6406 40.5703 67.4062 40.3203 67.0938 40.0859C66.7812 39.8359 66.3594 39.5938 65.8281 39.3594C65.7969 39.3438 65.7266 39.3359 65.6172 39.3359C65.5078 39.3203 65.4297 39.3125 65.3828 39.3125C65.1328 39.3125 64.8828 39.3906 64.6328 39.5469C64.3828 39.6875 64.1562 39.875 63.9531 40.1094C63.75 40.3281 63.5781 40.5781 63.4375 40.8594C63.2969 41.125 63.1953 41.375 63.1328 41.6094C63.1016 41.7969 63.0547 42.1328 62.9922 42.6172C62.9453 43.0859 62.8828 43.5938 62.8047 44.1406C62.7422 44.6875 62.6875 45.2031 62.6406 45.6875C62.5938 46.1719 62.5547 46.5078 62.5234 46.6953L61.7969 46.5547L61.3281 31.7188H62.2422ZM74.8047 56.6094C74.8047 55.8281 74.875 55.0234 75.0156 54.1953C75.1562 53.3672 75.2969 52.5391 75.4375 51.7109C75.5938 50.8828 75.7188 50.0547 75.8125 49.2266C75.9219 48.3984 75.9375 47.5859 75.8594 46.7891L70.0234 36.8984C70.3672 36.5859 70.6406 36.4141 70.8438 36.3828C71.0469 36.3359 71.1641 36.3281 71.1953 36.3594C71.3047 36.5156 71.4844 36.8047 71.7344 37.2266C72 37.6484 72.2969 38.1406 72.625 38.7031C72.9688 39.2656 73.3281 39.8594 73.7031 40.4844C74.0781 41.1094 74.4297 41.7031 74.7578 42.2656C75.1016 42.8281 75.3906 43.3281 75.625 43.7656C75.875 44.2031 76.0469 44.5078 76.1406 44.6797L77.2188 35.9844L78.3906 36.5703L75.8594 56.6797L74.8047 56.6094ZM89.2422 31.25L90.1328 46.1094C91.5234 46.1094 92.9141 46.0234 94.3047 45.8516C95.7109 45.6641 97.1484 45.4922 98.6172 45.3359L98.7109 46.1094C98.6953 46.1094 98.5469 46.1328 98.2656 46.1797C98 46.2109 97.6406 46.2578 97.1875 46.3203C96.75 46.3672 96.25 46.4219 95.6875 46.4844C95.125 46.5469 94.5625 46.6094 94 46.6719C93.4375 46.7344 92.8984 46.7969 92.3828 46.8594C91.8672 46.9219 91.4219 46.9688 91.0469 47C91.0312 47 90.9922 47 90.9297 47C90.8672 47.0156 90.7969 47.0234 90.7188 47.0234C90.6406 47.0234 90.5625 47.0234 90.4844 47.0234C90.4062 47.0234 90.3438 47.0234 90.2969 47.0234C89.9531 47.0234 89.6719 46.8438 89.4531 46.4844C89.2344 46.1094 89.0547 45.6094 88.9141 44.9844C88.7734 44.3438 88.6719 43.6172 88.6094 42.8047C88.5469 41.9766 88.5 41.1172 88.4688 40.2266C88.4375 39.3359 88.4219 38.4375 88.4219 37.5312C88.4375 36.625 88.4453 35.7734 88.4453 34.9766C88.4453 34.1641 88.4375 33.4297 88.4219 32.7734C88.4219 32.1172 88.3984 31.6094 88.3516 31.25H89.2422ZM99.7188 37.9062C99.7188 37.8281 99.7656 37.75 99.8594 37.6719C99.9688 37.5938 100.094 37.5312 100.234 37.4844C100.391 37.4375 100.539 37.4062 100.68 37.3906C100.82 37.375 100.922 37.3984 100.984 37.4609C101.078 39.3984 101.258 40.9453 101.523 42.1016C101.805 43.2422 102.117 44.0781 102.461 44.6094C102.82 45.1406 103.203 45.4141 103.609 45.4297C104.016 45.4297 104.414 45.2578 104.805 44.9141C105.195 44.5547 105.555 44.0703 105.883 43.4609C106.227 42.8516 106.5 42.1953 106.703 41.4922C106.922 40.7891 107.055 40.0859 107.102 39.3828C107.148 38.6797 107.086 38.0547 106.914 37.5078L108.32 37.3438C108.336 37.5781 108.375 37.9688 108.438 38.5156C108.516 39.0469 108.594 39.6562 108.672 40.3438C108.766 41.0156 108.867 41.7188 108.977 42.4531C109.086 43.1875 109.18 43.875 109.258 44.5156C109.336 45.1406 109.406 45.6797 109.469 46.1328C109.531 46.5703 109.562 46.8438 109.562 46.9531H108.555L107.453 42.8984C107.234 43.4453 106.969 43.9688 106.656 44.4688C106.344 44.9688 106 45.4062 105.625 45.7812C105.266 46.1562 104.883 46.4531 104.477 46.6719C104.07 46.875 103.664 46.9609 103.258 46.9297C102.867 46.8828 102.484 46.6953 102.109 46.3672C101.734 46.0391 101.383 45.5234 101.055 44.8203C100.742 44.1016 100.469 43.1797 100.234 42.0547C100 40.9297 99.8281 39.5469 99.7188 37.9062ZM110.453 42.9922C110.453 42.4141 110.547 41.7734 110.734 41.0703C110.922 40.3672 111.195 39.7188 111.555 39.125C111.914 38.5156 112.359 38.0078 112.891 37.6016C113.422 37.1953 114.039 36.9922 114.742 36.9922C115.102 36.9453 115.391 36.9844 115.609 37.1094C115.828 37.2188 115.992 37.3984 116.102 37.6484C116.227 37.8984 116.305 38.1875 116.336 38.5156C116.383 38.8281 116.406 39.1562 116.406 39.5C116.422 39.8281 116.422 40.1406 116.406 40.4375C116.406 40.7188 116.422 40.9531 116.453 41.1406H115.867C115.852 41.0469 115.82 40.8281 115.773 40.4844C115.742 40.125 115.68 39.7578 115.586 39.3828C115.492 39.0078 115.359 38.6719 115.188 38.375C115.031 38.0781 114.805 37.9297 114.508 37.9297C114.07 37.9297 113.656 38.1016 113.266 38.4453C112.891 38.7891 112.562 39.2031 112.281 39.6875C112 40.1719 111.773 40.6719 111.602 41.1875C111.43 41.7031 111.344 42.1328 111.344 42.4766C111.359 42.8672 111.414 43.2969 111.508 43.7656C111.602 44.2188 111.75 44.6328 111.953 45.0078C112.172 45.3828 112.453 45.6875 112.797 45.9219C113.141 46.1562 113.562 46.2266 114.062 46.1328C114.438 46.1328 114.797 46.0547 115.141 45.8984C115.484 45.7422 115.82 45.5781 116.148 45.4062C116.477 45.2344 116.805 45.0703 117.133 44.9141C117.477 44.7578 117.836 44.6797 118.211 44.6797C118.211 45.0859 118.062 45.4453 117.766 45.7578C117.469 46.0547 117.102 46.2969 116.664 46.4844C116.242 46.6719 115.789 46.8125 115.305 46.9062C114.836 47 114.438 47.0469 114.109 47.0469C113.578 47.0469 113.086 46.9375 112.633 46.7188C112.195 46.5 111.812 46.2109 111.484 45.8516C111.156 45.4766 110.898 45.0469 110.711 44.5625C110.539 44.0625 110.453 43.5391 110.453 42.9922ZM120.109 46.3672C120.094 46.0391 120.055 45.5391 119.992 44.8672C119.945 44.1797 119.891 43.4141 119.828 42.5703C119.766 41.7109 119.703 40.8047 119.641 39.8516C119.578 38.8984 119.516 38 119.453 37.1562C119.406 36.2969 119.359 35.5312 119.312 34.8594C119.266 34.1719 119.234 33.6641 119.219 33.3359C119.203 33.1953 119.188 32.9531 119.172 32.6094C119.172 32.25 119.164 31.875 119.148 31.4844C119.133 31.0781 119.117 30.7031 119.102 30.3594C119.102 30 119.102 29.75 119.102 29.6094C119.32 29.6094 119.516 29.6562 119.688 29.75C119.859 29.8281 120 29.9688 120.109 30.1719C120.141 30.5 120.172 30.9688 120.203 31.5781C120.25 32.1719 120.297 32.8594 120.344 33.6406C120.391 34.4219 120.438 35.2578 120.484 36.1484C120.547 37.0391 120.602 37.9219 120.648 38.7969C120.695 38.7188 120.742 38.6484 120.789 38.5859C120.836 38.5234 120.867 38.4844 120.883 38.4688C121.055 38.2812 121.258 38.0625 121.492 37.8125C121.727 37.5625 121.969 37.3047 122.219 37.0391C122.484 36.7734 122.742 36.5156 122.992 36.2656C123.258 36 123.492 35.7656 123.695 35.5625C123.914 35.3438 124.094 35.1719 124.234 35.0469C124.375 34.9219 124.461 34.8594 124.492 34.8594L125.383 35.3047C125.117 35.5391 124.812 35.8125 124.469 36.125C124.125 36.4375 123.789 36.7734 123.461 37.1328C123.133 37.4766 122.812 37.8438 122.5 38.2344C122.203 38.6094 121.961 38.9844 121.773 39.3594C121.773 39.375 121.766 39.4141 121.75 39.4766C121.75 39.5234 121.75 39.5625 121.75 39.5938C121.75 39.6094 121.75 39.6484 121.75 39.7109C121.766 39.7578 121.773 39.7891 121.773 39.8047L127.188 46.1094C127.188 46.125 127.188 46.1562 127.188 46.2031C127.203 46.25 127.211 46.2891 127.211 46.3203C127.211 46.6172 127.055 46.8438 126.742 47L120.883 40.25C120.867 40.2344 120.844 40.2109 120.812 40.1797C120.797 40.1328 120.773 40.0859 120.742 40.0391L121 44.5859C121 44.6641 121 44.8125 121 45.0312C121.016 45.25 121.023 45.4922 121.023 45.7578C121.039 46.0078 121.047 46.25 121.047 46.4844C121.062 46.7031 121.07 46.8516 121.07 46.9297C120.867 46.9297 120.68 46.8906 120.508 46.8125C120.336 46.7188 120.203 46.5703 120.109 46.3672Z" fill="#003651"/>
</svg>
